<svg viewBox="0 0 100 100" xmlns="http://www.w3.org/2000/svg">
  <defs>
    <radialGradient id="bg4" cx="50%" cy="40%" r="60%">
      <stop offset="0%" stop-color="#991b1b"/>
      <stop offset="100%" stop-color="#1e3a8a"/>
    </radialGradient>
  </defs>
  <circle cx="50" cy="50" r="50" fill="url(#bg4)"/>
  <!-- Red mask -->
  <ellipse cx="50" cy="46" rx="24" ry="26" fill="#dc2626"/>
  <!-- Web pattern lines on mask -->
  <path d="M50 20 L50 72" stroke="#991b1b" stroke-width="0.8" opacity="0.6"/>
  <path d="M26 46 L74 46" stroke="#991b1b" stroke-width="0.8" opacity="0.6"/>
  <path d="M31 28 L69 64" stroke="#991b1b" stroke-width="0.8" opacity="0.6"/>
  <path d="M69 28 L31 64" stroke="#991b1b" stroke-width="0.8" opacity="0.6"/>
  <!-- Curved web lines -->
  <path d="M50 20 Q62 26 74 46 Q62 56 50 72 Q38 56 26 46 Q38 26 50 20 Z" stroke="#991b1b" stroke-width="0.7" fill="none" opacity="0.5"/>
  <path d="M50 26 Q60 31 68 46 Q60 52 50 66 Q40 52 32 46 Q40 31 50 26 Z" stroke="#991b1b" stroke-width="0.7" fill="none" opacity="0.5"/>
  <path d="M50 32 Q58 36 64 46 Q58 52 50 60 Q42 52 36 46 Q42 36 50 32 Z" stroke="#991b1b" stroke-width="0.7" fill="none" opacity="0.5"/>
  <!-- White large eye lenses -->
  <ellipse cx="37" cy="44" rx="9" ry="8" fill="white"/>
  <ellipse cx="63" cy="44" rx="9" ry="8" fill="white"/>
  <!-- Eye inner ring -->
  <ellipse cx="37" cy="44" rx="6" ry="5.5" fill="#e2e8f0"/>
  <ellipse cx="63" cy="44" rx="6" ry="5.5" fill="#e2e8f0"/>
  <!-- Blue chin/jaw area -->
  <path d="M30 60 Q50 72 70 60 L68 70 Q50 80 32 70 Z" fill="#1e3a8a"/>
  <!-- Blue collar -->
  <path d="M26 46 Q26 66 30 70 L28 72 Q22 66 22 46 Z" fill="#1e3a8a"/>
  <path d="M74 46 Q74 66 70 70 L72 72 Q78 66 78 46 Z" fill="#1e3a8a"/>
  <!-- Spider symbol hint -->
  <path d="M50 82 L46 86 L54 86 Z" fill="#dc2626" opacity="0.6"/>
  <path d="M50 78 L50 88" stroke="#dc2626" stroke-width="1.5" opacity="0.5"/>
  <path d="M45 82 L55 82" stroke="#dc2626" stroke-width="1.5" opacity="0.5"/>
</svg>
