<svg viewBox="0 0 100 100" xmlns="http://www.w3.org/2000/svg">
  <defs>
    <radialGradient id="bg3" cx="50%" cy="40%" r="60%">
      <stop offset="0%" stop-color="#1e1b4b"/>
      <stop offset="100%" stop-color="#0a0918"/>
    </radialGradient>
  </defs>
  <circle cx="50" cy="50" r="50" fill="url(#bg3)"/>
  <!-- Bat ears -->
  <polygon points="34,28 28,10 40,26" fill="#1a1a2e"/>
  <polygon points="66,28 72,10 60,26" fill="#1a1a2e"/>
  <!-- Cowl -->
  <ellipse cx="50" cy="46" rx="26" ry="28" fill="#1a1a2e"/>
  <!-- Face exposed -->
  <ellipse cx="50" cy="52" rx="18" ry="14" fill="#d4a574"/>
  <!-- Mask eye cutouts -->
  <path d="M28 44 Q36 38 44 44 Q36 50 28 44 Z" fill="#1a1a2e"/>
  <path d="M72 44 Q64 38 56 44 Q64 50 72 44 Z" fill="#1a1a2e"/>
  <!-- White eye lenses -->
  <path d="M30 44 Q37 39 43 44 Q37 49 30 44 Z" fill="#f0f0f0" opacity="0.9"/>
  <path d="M70 44 Q63 39 57 44 Q63 49 70 44 Z" fill="#f0f0f0" opacity="0.9"/>
  <!-- Yellow eye glow -->
  <ellipse cx="36" cy="44" rx="3" ry="2.5" fill="#fbbf24" opacity="0.7"/>
  <ellipse cx="64" cy="44" rx="3" ry="2.5" fill="#fbbf24" opacity="0.7"/>
  <!-- Nose -->
  <path d="M47 56 L50 58 L53 56 L51 60 L49 60 Z" fill="#c09060"/>
  <!-- Stern mouth -->
  <path d="M43 63 Q50 60 57 63" stroke="#8B6040" stroke-width="1.5" fill="none" stroke-linecap="round"/>
  <!-- Cowl chin -->
  <path d="M36 64 Q50 74 64 64 L62 72 Q50 78 38 72 Z" fill="#1a1a2e"/>
  <!-- Yellow chest symbol hint -->
  <path d="M44 86 L50 80 L56 86 L54 92 L46 92 Z" fill="#fbbf24" opacity="0.5"/>
</svg>
