<svg viewBox="0 0 100 100" xmlns="http://www.w3.org/2000/svg">
  <defs>
    <radialGradient id="bg8" cx="50%" cy="40%" r="60%">
      <stop offset="0%" stop-color="#14532d"/>
      <stop offset="100%" stop-color="#052e16"/>
    </radialGradient>
    <radialGradient id="eyeGlow8" cx="50%" cy="50%" r="50%">
      <stop offset="0%" stop-color="#fde68a"/>
      <stop offset="100%" stop-color="#d97706"/>
    </radialGradient>
  </defs>
  <circle cx="50" cy="50" r="50" fill="url(#bg8)"/>
  <!-- Tree trunk body/neck -->
  <rect x="42" y="72" width="16" height="28" rx="5" fill="#78350f"/>
  <!-- Bark texture lines on neck -->
  <path d="M44 74 Q46 78 44 82" stroke="#6b2d0f" stroke-width="1" fill="none"/>
  <path d="M52 74 Q54 80 52 84" stroke="#6b2d0f" stroke-width="1" fill="none"/>
  <!-- Main head (wooden/bark texture) -->
  <ellipse cx="50" cy="48" rx="26" ry="28" fill="#92400e"/>
  <!-- Bark texture on face -->
  <path d="M34 38 Q40 44 36 50" stroke="#78350f" stroke-width="1.5" fill="none" opacity="0.7"/>
  <path d="M66 38 Q60 44 64 50" stroke="#78350f" stroke-width="1.5" fill="none" opacity="0.7"/>
  <path d="M42 30 Q44 38 42 44" stroke="#78350f" stroke-width="1" fill="none" opacity="0.6"/>
  <path d="M58 30 Q56 38 58 44" stroke="#78350f" stroke-width="1" fill="none" opacity="0.6"/>
  <!-- Mossy patches -->
  <ellipse cx="38" cy="36" rx="5" ry="3" fill="#166534" opacity="0.6"/>
  <ellipse cx="62" cy="36" rx="4" ry="2.5" fill="#166534" opacity="0.6"/>
  <ellipse cx="50" cy="24" rx="8" ry="4" fill="#15803d" opacity="0.7"/>
  <!-- Warm glowing eyes -->
  <ellipse cx="39" cy="46" rx="6" ry="5" fill="url(#eyeGlow8)"/>
  <ellipse cx="61" cy="46" rx="6" ry="5" fill="url(#eyeGlow8)"/>
  <ellipse cx="39" cy="46" rx="3.5" ry="3.5" fill="#d97706"/>
  <ellipse cx="61" cy="46" rx="3.5" ry="3.5" fill="#d97706"/>
  <ellipse cx="39" cy="46" rx="2" ry="2" fill="#78350f"/>
  <ellipse cx="61" cy="46" rx="2" ry="2" fill="#78350f"/>
  <circle cx="40.5" cy="44.5" r="1" fill="white" opacity="0.7"/>
  <circle cx="62.5" cy="44.5" r="1" fill="white" opacity="0.7"/>
  <!-- Friendly smile crack -->
  <path d="M40 58 Q50 64 60 58" stroke="#5c2a0a" stroke-width="2" fill="none" stroke-linecap="round"/>
  <!-- Leaf crown -->
  <path d="M30 30 Q22 20 28 14 Q34 18 32 28 Z" fill="#16a34a"/>
  <path d="M40 24 Q38 12 44 10 Q48 18 44 26 Z" fill="#22c55e"/>
  <path d="M50 20 Q52 8 58 8 Q58 18 52 22 Z" fill="#16a34a"/>
  <path d="M60 24 Q66 14 70 16 Q68 24 62 28 Z" fill="#22c55e"/>
  <path d="M68 32 Q76 24 78 28 Q74 34 68 34 Z" fill="#16a34a"/>
  <!-- Twig fingers at edge -->
  <line x1="24" y1="50" x2="18" y2="46" stroke="#78350f" stroke-width="2" stroke-linecap="round"/>
  <line x1="24" y1="50" x2="16" y2="54" stroke="#78350f" stroke-width="1.5" stroke-linecap="round"/>
  <line x1="76" y1="50" x2="82" y2="46" stroke="#78350f" stroke-width="2" stroke-linecap="round"/>
  <line x1="76" y1="50" x2="84" y2="54" stroke="#78350f" stroke-width="1.5" stroke-linecap="round"/>
</svg>
